<?xml version="1.0" standalone="no"?><svg xmlns:xlink="http://www.w3.org/1999/xlink" xmlns="http://www.w3.org/2000/svg" viewBox="0 0 1200 872.7272727272726" preserveAspectRatio="xMaxYMax slice"><g transform="scale(1.73504427977589)"><rect x="0" y="0" width="691.625" height="503" fill="#ffffff"/><rect x="0" y="0" width="62.88" height="62.88" fill="#607a8f"/><rect x="0" y="0" width="62.88" height="62.88" fill="#bbd4e8"/><rect x="62.88" y="0" width="62.88" height="62.88" fill="#a3b2be"/><rect x="62.88" y="0" width="62.88" height="62.88" fill="#f3f8fb"/><rect x="125.75" y="0" width="62.88" height="62.88" fill="#528bb7"/><path d="M 125.75 62.88 A 62.88 62.88 0 0 0 188.63 0 L 125.75 0" fill="#5e798e"/><rect x="188.63" y="0" width="62.88" height="62.88" fill="#c5cfd6"/><rect x="188.63" y="0" width="62.88" height="62.88" fill="#f7fafc"/><rect x="251.5" y="0" width="62.88" height="62.88" fill="#8094a5"/><path d="M 251.5 0 A 62.88 62.88 0 0 1 314.38 62.88 L 251.5 62.88" fill="#c0d5e5"/><rect x="314.38" y="0" width="62.88" height="62.88" fill="#7da8c9"/><path d="M 314.38 62.88 A 62.88 62.88 0 0 1  377.26 0 L 377.26 62.88" fill="#43617a"/><rect x="377.25" y="0" width="62.88" height="62.88" fill="#4b6980"/><polygon points="440.13,0 440.13,62.88 377.25,62.88" fill="#f4f8fb"/><rect x="440.13" y="0" width="62.88" height="62.88" fill="#ecf3f9"/><polygon points="503.01,0 503.01,62.88 440.13,62.88" fill="#ccddea"/><rect x="503" y="0" width="62.88" height="62.88" fill="#f7fafc"/><polygon points="503,0 565.88,0 565.88,62.88" fill="#c7dcec"/><rect x="565.88" y="0" width="62.88" height="62.88" fill="#89b0ce"/><polygon points="565.88,0 628.76,0 565.88,62.88" fill="#dae8f2"/><rect x="628.75" y="0" width="62.88" height="62.88" fill="#e8f1f7"/><rect x="628.75" y="0" width="62.88" height="62.88" fill="#b9d0e2"/><rect x="0" y="62.88" width="62.88" height="62.88" fill="#fefefe"/><rect x="0" y="62.88" width="62.88" height="62.88" fill="#9dbdd6"/><rect x="62.88" y="62.88" width="62.88" height="62.88" fill="#e7f0f7"/><rect x="62.88" y="62.88" width="62.88" height="62.88" fill="#f6f9fc"/><rect x="125.75" y="62.88" width="62.88" height="62.88" fill="#ffffff"/><rect x="125.75" y="62.88" width="62.88" height="62.88" fill="#526e85"/><rect x="188.63" y="62.88" width="62.88" height="62.88" fill="#b2bfc9"/><polygon points="188.63,62.88 251.51,62.88 251.51,125.76" fill="#e6eef5"/><rect x="251.5" y="62.88" width="62.88" height="62.88" fill="#9abbd5"/><path d="M 251.5 62.88 A 62.88 62.88 0 0 1  314.38 125.76 L 251.5 62.88 A 62.88 62.88 0 0 0 314.38 125.76" fill="#85adcc"/><rect x="314.38" y="62.88" width="62.88" height="62.88" fill="#bed6e9"/><path d="M 314.38 125.76 A 62.88 62.88 0 0 1  377.26 62.88 L 314.38 125.76 A 62.88 62.88 0 0 0 377.26 62.88" fill="#b1bdc8"/><rect x="377.25" y="62.88" width="62.88" height="62.88" fill="#4b86b4"/><path d="M 377.25 62.88 A 62.88 62.88 0 0 1 440.13 125.76 L 377.25 125.76" fill="#92b6d1"/><rect x="440.13" y="62.88" width="62.88" height="62.88" fill="#fefeff"/><rect x="440.13" y="62.88" width="62.88" height="62.88" fill="#dfe4e9"/><rect x="503" y="62.88" width="62.88" height="62.88" fill="#b8d2e7"/><rect x="503" y="62.88" width="62.88" height="62.88" fill="#385973"/><rect x="565.88" y="62.88" width="62.88" height="62.88" fill="#788ea0"/><rect x="565.88" y="62.88" width="62.88" height="62.88" fill="#ebf2f8"/><rect x="628.75" y="62.88" width="62.88" height="62.88" fill="#f2f7fb"/><rect x="628.75" y="62.88" width="62.88" height="62.88" fill="#d0d8de"/><rect x="0" y="125.75" width="62.88" height="62.88" fill="#70879a"/><rect x="0" y="125.75" width="62.88" height="62.88" fill="#a9b7c3"/><rect x="62.88" y="125.75" width="62.88" height="62.88" fill="#dce7f0"/><path d="M 62.88 125.75 A 62.88 62.88 0 0 0 125.76 188.63 L 125.76 125.75" fill="#adc8dd"/><rect x="125.75" y="125.75" width="62.88" height="62.88" fill="#738a9c"/><path d="M 125.75 188.63 A 62.88 62.88 0 0 0 188.63 125.75 L 125.75 125.75" fill="#98bad4"/><rect x="188.63" y="125.75" width="62.88" height="62.88" fill="#bed3e4"/><polygon points="188.63,125.75 251.51,125.75 188.63,188.63" fill="#f1f6f9"/><rect x="251.5" y="125.75" width="62.88" height="62.88" fill="#f7fafc"/><rect x="251.5" y="125.75" width="62.88" height="62.88" fill="#fefeff"/><rect x="314.38" y="125.75" width="62.88" height="62.88" fill="#bad3e8"/><path d="M 314.38 188.63 A 62.88 62.88 0 0 0 377.26 125.75 L 314.38 125.75" fill="#cee0ee"/><rect x="377.25" y="125.75" width="62.88" height="62.88" fill="#ffffff"/><rect x="377.25" y="125.75" width="62.88" height="62.88" fill="#8eb3d0"/><rect x="440.13" y="125.75" width="62.88" height="62.88" fill="#8cb2cf"/><path d="M 440.13 125.75 A 62.88 62.88 0 0 1 503.01 188.63 L 440.13 188.63" fill="#dce9f3"/><rect x="503" y="125.75" width="62.88" height="62.88" fill="#e9f0f6"/><rect x="503" y="125.75" width="62.88" height="62.88" fill="#bad3e7"/><rect x="565.88" y="125.75" width="62.88" height="62.88" fill="#e7f0f7"/><rect x="565.88" y="125.75" width="62.88" height="62.88" fill="#d2e2f0"/><rect x="628.75" y="125.75" width="62.88" height="62.88" fill="#f0f6fa"/><rect x="628.75" y="125.75" width="62.88" height="62.88" fill="#a9c5db"/><rect x="0" y="188.63" width="62.88" height="62.88" fill="#bcd5e8"/><path d="M 0 188.63 A 62.88 62.88 0 0 0 62.88 251.51 L 62.88 188.63" fill="#8ea1af"/><rect x="62.88" y="188.63" width="62.88" height="62.88" fill="#cadded"/><polygon points="62.88,188.63 125.76,188.63 125.76,251.51" fill="#b1cee4"/><rect x="125.75" y="188.63" width="62.88" height="62.88" fill="#aecbe3"/><polygon points="125.75,188.63 188.63,188.63 188.63,251.51" fill="#33556f"/><rect x="188.63" y="188.63" width="62.88" height="62.88" fill="#72a0c4"/><polygon points="188.63,188.63 251.51,188.63 251.51,251.51" fill="#e4edf4"/><rect x="251.5" y="188.63" width="62.88" height="62.88" fill="#83accb"/><path d="M 251.5 251.51 A 62.88 62.88 0 0 1  314.38 188.63 L 314.38 251.51" fill="#bad1e2"/><rect x="314.38" y="188.63" width="62.88" height="62.88" fill="#768c9e"/><polygon points="377.26,188.63 377.26,251.51 314.38,251.51" fill="#a5b4bf"/><rect x="377.25" y="188.63" width="62.88" height="62.88" fill="#4d6a82"/><polygon points="440.13,188.63 440.13,251.51 377.25,251.51" fill="#bac6cf"/><rect x="440.13" y="188.63" width="62.88" height="62.88" fill="#d2e2f0"/><rect x="440.13" y="188.63" width="62.88" height="62.88" fill="#bcd2e3"/><rect x="503" y="188.63" width="62.88" height="62.88" fill="#e9ecef"/><path d="M 503 251.51 A 62.88 62.88 0 0 1  565.88 188.63 L 565.88 251.51" fill="#bdd5e9"/><rect x="565.88" y="188.63" width="62.88" height="62.88" fill="#a3c1d9"/><rect x="565.88" y="188.63" width="62.88" height="62.88" fill="#d2e2f0"/><rect x="628.75" y="188.63" width="62.88" height="62.88" fill="#f4f7fa"/><rect x="628.75" y="188.63" width="62.88" height="62.88" fill="#e7f0f7"/><rect x="0" y="251.5" width="62.88" height="62.88" fill="#5f94bd"/><polygon points="0,251.5 62.88,251.5 62.88,314.38" fill="#5d92bb"/><rect x="62.88" y="251.5" width="62.88" height="62.88" fill="#83accb"/><path d="M 62.88 314.38 A 62.88 62.88 0 0 0 125.76 251.5 L 62.88 251.5" fill="#4b6980"/><rect x="125.75" y="251.5" width="62.88" height="62.88" fill="#88afce"/><path d="M 125.75 251.5 A 62.88 62.88 0 0 1 188.63 314.38 L 125.75 314.38" fill="#6799c0"/><rect x="188.63" y="251.5" width="62.88" height="62.88" fill="#dce2e6"/><rect x="188.63" y="251.5" width="62.88" height="62.88" fill="#5f7a8f"/><rect x="251.5" y="251.5" width="62.88" height="62.88" fill="#bfcad2"/><rect x="251.5" y="251.5" width="62.88" height="62.88" fill="#8196a6"/><rect x="314.38" y="251.5" width="62.88" height="62.88" fill="#e5eef6"/><rect x="314.38" y="251.5" width="62.88" height="62.88" fill="#bad1e2"/><rect x="377.25" y="251.5" width="62.88" height="62.88" fill="#627c91"/><polygon points="377.25,251.5 440.13,314.38 377.25,314.38" fill="#578eb9"/><rect x="440.13" y="251.5" width="62.88" height="62.88" fill="#47657e"/><rect x="440.13" y="251.5" width="62.88" height="62.88" fill="#dee9f1"/><rect x="503" y="251.5" width="62.88" height="62.88" fill="#365772"/><polygon points="565.88,251.5 565.88,314.38 503,314.38" fill="#f9fafb"/><rect x="565.88" y="251.5" width="62.88" height="62.88" fill="#e3edf6"/><polygon points="565.88,251.5 628.76,251.5 628.76,314.38" fill="#538bb7"/><rect x="628.75" y="251.5" width="62.88" height="62.88" fill="#ebf1f7"/><path d="M 628.75 314.38 A 62.88 62.88 0 0 1  691.63 251.5 L 691.63 314.38" fill="#8196a6"/><rect x="0" y="314.38" width="62.88" height="62.88" fill="#f8fafc"/><path d="M 0 314.38 A 62.88 62.88 0 0 1 62.88 377.26 L 0 377.26" fill="#f2f7fb"/><rect x="62.88" y="314.38" width="62.88" height="62.88" fill="#647e92"/><rect x="62.88" y="314.38" width="62.88" height="62.88" fill="#f3f7fa"/><rect x="125.75" y="314.38" width="62.88" height="62.88" fill="#a3c1d9"/><rect x="125.75" y="314.38" width="62.88" height="62.88" fill="#b1cde4"/><rect x="188.63" y="314.38" width="62.88" height="62.88" fill="#cee0ee"/><rect x="188.63" y="314.38" width="62.88" height="62.88" fill="#d2e3f0"/><rect x="251.5" y="314.38" width="62.88" height="62.88" fill="#f1f6f9"/><rect x="251.5" y="314.38" width="62.88" height="62.88" fill="#72a0c4"/><rect x="314.38" y="314.38" width="62.88" height="62.88" fill="#395a74"/><polygon points="314.38,314.38 377.26,377.26 314.38,377.26" fill="#768d9f"/><rect x="377.25" y="314.38" width="62.88" height="62.88" fill="#f3f7fb"/><polygon points="440.13,314.38 440.13,377.26 377.25,377.26" fill="#dbe7f0"/><rect x="440.13" y="314.38" width="62.88" height="62.88" fill="#c7dbec"/><path d="M 440.13 377.26 A 62.88 62.88 0 0 0 503.01 314.38 L 440.13 314.38" fill="#e1ebf2"/><rect x="503" y="314.38" width="62.88" height="62.88" fill="#6b8396"/><path d="M 503 314.38 A 62.88 62.88 0 0 0 565.88 377.26 L 565.88 314.38" fill="#f7fafc"/><rect x="565.88" y="314.38" width="62.88" height="62.88" fill="#dae0e5"/><polygon points="565.88,314.38 628.76,314.38 565.88,377.26" fill="#8bb1cf"/><rect x="628.75" y="314.38" width="62.88" height="62.88" fill="#bdd2e3"/><polygon points="628.75,314.38 691.63,314.38 628.75,377.26" fill="#98bad4"/><rect x="0" y="377.25" width="62.88" height="62.88" fill="#a2c0d8"/><polygon points="0,377.25 62.88,377.25 0,440.13" fill="#cfdfeb"/><rect x="62.88" y="377.25" width="62.88" height="62.88" fill="#cbdeed"/><rect x="62.88" y="377.25" width="62.88" height="62.88" fill="#6497be"/><rect x="125.75" y="377.25" width="62.88" height="62.88" fill="#c1d7ea"/><polygon points="125.75,377.25 188.63,377.25 125.75,440.13" fill="#c9d2d9"/><rect x="188.63" y="377.25" width="62.88" height="62.88" fill="#d2e3f0"/><polygon points="188.63,377.25 251.51,377.25 251.51,440.13" fill="#4f88b5"/><rect x="251.5" y="377.25" width="62.88" height="62.88" fill="#8bb1cf"/><rect x="251.5" y="377.25" width="62.88" height="62.88" fill="#cadce9"/><rect x="314.38" y="377.25" width="62.88" height="62.88" fill="#f9fafa"/><polygon points="314.38,377.25 377.26,377.25 377.26,440.13" fill="#f8fbfd"/><rect x="377.25" y="377.25" width="62.88" height="62.88" fill="#b5d0e6"/><polygon points="377.25,377.25 440.13,377.25 440.13,440.13" fill="#eff1f3"/><rect x="440.13" y="377.25" width="62.88" height="62.88" fill="#416079"/><polygon points="440.13,377.25 503.01,377.25 440.13,440.13" fill="#a1b0bd"/><rect x="503" y="377.25" width="62.88" height="62.88" fill="#9fbfd7"/><path d="M 503 377.25 A 62.88 62.88 0 0 1 565.88 440.13 L 503 440.13" fill="#dde8f1"/><rect x="565.88" y="377.25" width="62.88" height="62.88" fill="#a5b4c0"/><path d="M 565.88 440.13 A 62.88 62.88 0 0 1  628.76 377.25 L 628.76 440.13" fill="#e9f0f6"/><rect x="628.75" y="377.25" width="62.88" height="62.88" fill="#4a6880"/><rect x="628.75" y="377.25" width="62.88" height="62.88" fill="#657e93"/><rect x="0" y="440.13" width="62.88" height="62.88" fill="#deeaf4"/><polygon points="62.88,440.13 62.88,503.01 0,503.01" fill="#b6d1e6"/><rect x="62.88" y="440.13" width="62.88" height="62.88" fill="#e6eff6"/><rect x="62.88" y="440.13" width="62.88" height="62.88" fill="#cde0ee"/><rect x="125.75" y="440.13" width="62.88" height="62.88" fill="#9dadba"/><polygon points="125.75,440.13 188.63,440.13 125.75,503.01" fill="#e1ebf2"/><rect x="188.63" y="440.13" width="62.88" height="62.88" fill="#788ea0"/><path d="M 188.63 503.01 A 62.88 62.88 0 0 1  251.51 440.13 L 251.51 503.01" fill="#c5daeb"/><rect x="251.5" y="440.13" width="62.88" height="62.88" fill="#dae8f2"/><path d="M 251.5 440.13 A 62.88 62.88 0 0 1  314.38 503.01 L 251.5 440.13 A 62.88 62.88 0 0 0 314.38 503.01" fill="#6799c0"/><rect x="314.38" y="440.13" width="62.88" height="62.88" fill="#bcd4e8"/><rect x="314.38" y="440.13" width="62.88" height="62.88" fill="#eaf2f8"/><rect x="377.25" y="440.13" width="62.88" height="62.88" fill="#a7b6c1"/><path d="M 377.25 440.13 A 62.88 62.88 0 0 0 440.13 503.01 L 440.13 440.13" fill="#f6f8f9"/><rect x="440.13" y="440.13" width="62.88" height="62.88" fill="#b6c2cb"/><path d="M 440.13 503.01 A 62.88 62.88 0 0 0 503.01 440.13 L 440.13 440.13" fill="#33556f"/><rect x="503" y="440.13" width="62.88" height="62.88" fill="#cddfee"/><path d="M 503 440.13 A 62.88 62.88 0 0 1  565.88 503.01 L 503 440.13 A 62.88 62.88 0 0 0 565.88 503.01" fill="#6a8296"/><rect x="565.88" y="440.13" width="62.88" height="62.88" fill="#568db8"/><path d="M 565.88 503.01 A 62.88 62.88 0 0 1  628.76 440.13 L 565.88 503.01 A 62.88 62.88 0 0 0 628.76 440.13" fill="#c2d6e6"/><rect x="628.75" y="440.13" width="62.88" height="62.88" fill="#f3f8fb"/><path d="M 628.75 503.01 A 62.88 62.88 0 0 1  691.63 440.13 L 628.75 503.01 A 62.88 62.88 0 0 0 691.63 440.13" fill="#b4cfe5"/></g></svg>